<svg width="100" height="100" viewBox="0 0 100 100" fill="none" xmlns="http://www.w3.org/2000/svg">
<rect width="100" height="100" rx="16" fill="#070707"/>
<path d="M45.8824 11.7055C48.1565 9.43155 51.8436 9.43144 54.1177 11.7055L68.2222 25.81L62.8189 31.2133C59.2256 28.7971 54.8993 27.3872 50.2437 27.3872C37.7813 27.3872 27.6783 37.4902 27.6783 49.9526C27.6785 62.4148 37.7814 72.517 50.2437 72.517C54.8493 72.517 59.1324 71.1368 62.7027 68.768L68.1734 74.2387L54.1177 88.2944C51.8436 90.5685 48.1565 90.5685 45.8824 88.2944L11.7056 54.1176C9.43147 51.8435 9.43147 48.1564 11.7056 45.8823L45.8824 11.7055Z" fill="white"/>
<path d="M88.2945 45.8823C90.5685 48.1564 90.5684 51.8435 88.2945 54.1176L74.3492 68.062L68.9146 62.6274C71.372 59.0146 72.809 54.6513 72.8091 49.9526C72.8091 45.3039 71.4023 40.9832 68.9927 37.393L74.399 31.9868L88.2945 45.8823Z" fill="white"/>
<path d="M58.2691 64.3354C55.8946 65.6632 53.1575 66.4203 50.2437 66.4204C47.286 66.4204 44.51 65.64 42.1109 64.2749L50.1597 56.226L58.2691 64.3354Z" fill="white"/>
<path d="M64.566 41.8198C65.9311 44.2189 66.7115 46.9949 66.7115 49.9526C66.7114 52.961 65.9036 55.7805 64.4947 58.2075L56.3365 50.0493L64.566 41.8198Z" fill="white"/>
<path d="M43.9839 50.0493L35.9302 58.102C34.559 55.699 33.775 52.9173 33.7749 49.9526C33.7749 47.0386 34.532 44.3008 35.8599 41.9262L43.9839 50.0493Z" fill="white"/>
<path d="M50.0982 45.7299C52.5905 45.7301 54.6109 47.6861 54.6109 50.0981C54.6107 52.5099 52.5903 54.4651 50.0982 54.4653C47.6058 54.4653 45.5847 52.51 45.5845 50.0981C45.5845 47.686 47.6057 45.7299 50.0982 45.7299Z" fill="white"/>
<path d="M50.2437 33.4838C53.2084 33.4839 55.9901 34.2679 58.3931 35.6391L50.1597 43.8725L41.9878 35.7006C44.415 34.2916 47.2351 33.4838 50.2437 33.4838Z" fill="white"/>
</svg>
